<?xml version="1.0" encoding="utf-8"?>
<!-- Generator: Adobe Illustrator 25.2.3, SVG Export Plug-In . SVG Version: 6.00 Build 0)  -->
<svg version="1.1" id="Layer_1" xmlns="http://www.w3.org/2000/svg" xmlns:xlink="http://www.w3.org/1999/xlink" x="0px" y="0px"
	 width="414px" height="345px" viewBox="0 0 414 345" style="enable-background:new 0 0 414 345;" xml:space="preserve">
<style type="text/css">
	.st0{fill:#29B473;}
	.st1{fill:none;stroke:#000000;stroke-width:0.3;stroke-miterlimit:10;}
	.st2{fill:#0478A3;}
	.st3{fill:#00A69C;}
	.st4{fill:#FFFFFF;}
</style>
<g>
	<g>
		<g>
			<polygon class="st0" points="204,174.3 170.3,139 180.7,113 184.2,114.4 174.7,138.2 206.7,171.7 			"/>
		</g>
		<g>
			<polygon class="st0" points="222.3,106 205.3,72.1 188.8,105.1 185.5,103.5 205.3,63.7 225.6,104.3 			"/>
		</g>
		<g>
			<polygon class="st0" points="206.7,174.3 204,171.7 236,138.2 226.1,113.5 229.7,112.6 240.4,139 239.5,139.9 			"/>
		</g>
		<g>
			<path class="st1" d="M207.5,119.5"/>
		</g>
		<g>
			<path class="st1" d="M205.5,152.6"/>
		</g>
		<g>
			<polygon class="st0" points="205.3,104.9 192.4,92.7 194.9,89.9 205.3,99.7 215.7,89.9 218.3,92.7 			"/>
		</g>
		<g>
			<g>
				<polygon class="st2" points="148.6,68 144.8,68 144.8,51.1 168,40.9 168,67.9 164.2,67.9 164.2,46.6 148.6,53.6 				"/>
			</g>
			<g>
				<rect x="144.8" y="91.1" class="st2" width="3.8" height="61.5"/>
			</g>
			<g>
				<polygon class="st2" points="158.3,67.9 154.5,67.9 154.5,33.1 197.8,16.9 197.8,51.2 194.1,51.2 194,22.3 158.3,35.7 				"/>
			</g>
		</g>
		<g>
			<polygon class="st2" points="265.9,67.9 262.1,67.9 262.1,53.6 246.5,46.6 246.5,67.9 242.8,67.9 242.8,40.9 265.9,51.1 			"/>
		</g>
		<g>
			<polygon class="st2" points="265.9,152.6 262.1,150.7 262.1,90.1 265.9,90.1 			"/>
		</g>
		<g>
			<polygon class="st2" points="256.2,67.9 252.4,67.9 252.5,35.7 216.6,22.3 216.7,50.8 212.9,50.8 212.9,16.9 256.2,33.1 			"/>
		</g>
		<g>
			<rect x="203.4" y="171.7" class="st0" width="3.8" height="14.9"/>
		</g>
		<g>
			<polygon class="st2" points="183.9,23.5 180.1,23.5 180.1,11.2 205.9,3.8 206.2,3.8 230.5,11.2 230.5,23.5 226.8,23.5 226.8,14 
				205.3,7.5 183.9,14 			"/>
		</g>
		<g>
			<path class="st3" d="M207.2,151.1l-3.8,0v-29.3l-33.4-28.2l35.5-63.4l35,63.4l-33.3,28.2V151.1z M174.9,92.7l30.4,25.7l30.4-25.7
				L205.5,38L174.9,92.7z"/>
		</g>
		<g>
			<polygon class="st3" points="160.3,111.4 124.7,66.2 185.9,66 185.1,69.8 132.5,69.9 163.2,109.1 			"/>
		</g>
		<g>
			<polygon class="st3" points="248.8,111.4 245.9,109 278.5,69.8 224,69.8 224,66 286.5,66 			"/>
		</g>
		<g>
			<polygon class="st0" points="205.3,153.9 177.4,122.2 180.2,119.7 205.3,148.2 230.4,119.7 233.3,122.2 			"/>
		</g>
		<g>
			<polygon class="st2" points="206.3,188.4 204.7,188.4 153.7,170.2 154.9,166.6 205.3,184.6 256.8,166.6 258.1,170.2 			"/>
		</g>
		<g>
			<polygon class="st3" points="136.5,175.9 160.5,107.4 204,117.6 203.2,121.3 162.9,111.9 142.6,170.1 186.7,156.2 189.6,159.3 
							"/>
		</g>
		<g>
			<polygon class="st3" points="274.4,175.9 221.1,159.2 224,156.1 268.4,170.1 248.1,111.9 207.9,121.3 207.1,117.6 250.6,107.4 
				251.1,109 			"/>
		</g>
	</g>
	<g>
		<g>
			<path class="st4" d="M90.9,246.9l-2.1,7h-4.7l7.9-24.7h5.8l8,24.7H101l-2.2-7H90.9z M98,243.5l-1.9-6.1c-0.5-1.5-0.9-3.2-1.2-4.6
				h-0.1c-0.4,1.4-0.7,3.1-1.2,4.6l-1.9,6.1H98z"/>
			<path class="st4" d="M106.2,254.1h-5.4l-2.2-7l-7.5,0l-2.1,7h-5.2l8.1-25.2H98l0.1,0.2L106.2,254.1z M101.2,253.6h4.3l-7.9-24.2
				l-5.4,0l-7.7,24.2h4.1l2.1-7h8.2L101.2,253.6z M98.3,243.7h-7l2-6.4c0.3-1,0.5-2,0.8-3.1c0.1-0.5,0.3-1.1,0.4-1.5l0-0.2H95l0.3,1
				c0.3,1.2,0.6,2.6,1,3.8L98.3,243.7z M92,243.2h5.6l-1.8-5.7c-0.4-1.2-0.7-2.6-1-3.8c-0.1,0.2-0.1,0.4-0.2,0.7
				c-0.2,1-0.5,2.1-0.8,3.1L92,243.2z"/>
		</g>
		<g>
			<path class="st4" d="M140.3,252.7c-1.6,0.6-4.7,1.4-7.9,1.4c-4.2,0-7.3-1.1-9.7-3.3c-2.2-2.1-3.5-5.3-3.4-9.1
				c0-7.8,5.6-12.8,13.7-12.8c3,0,5.4,0.6,6.6,1.2l-1,3.6c-1.4-0.6-3-1.1-5.6-1.1c-5.3,0-9,3.1-9,8.9c0,5.6,3.4,8.9,8.6,8.9
				c1.6,0,2.8-0.2,3.4-0.5l0-6.2h-4.4v-3.6l8.7,0V252.7z"/>
			<path class="st4" d="M132.4,254.4c-4.3,0-7.5-1.1-9.9-3.4c-2.3-2.2-3.6-5.5-3.5-9.3c0-7.8,5.6-13.1,14-13.1
				c3.1,0,5.5,0.6,6.7,1.2l0.2,0.1l-1.1,4.1l-0.3-0.1c-1.2-0.5-2.8-1-5.5-1c-5.4,0-8.7,3.3-8.7,8.6c0,5.4,3.2,8.7,8.3,8.7
				c1.6,0,2.6-0.2,3.1-0.4v-5.7h-4.4V240h9.2l0,12.9l-0.2,0.1C138.6,253.7,135.5,254.4,132.4,254.4z M133,229.2
				c-8.1,0-13.5,5-13.5,12.6c0,3.6,1.2,6.8,3.4,8.9c2.3,2.2,5.4,3.2,9.5,3.2c3,0,5.9-0.7,7.7-1.3v-12.1h-8.2v3h4.4v6.6l-0.1,0.1
				c-0.7,0.3-2,0.5-3.5,0.5c-5.4,0-8.8-3.6-8.8-9.2c0-5.6,3.5-9.1,9.2-9.1c2.6,0,4.3,0.5,5.4,1l0.9-3.1
				C138.1,229.7,135.9,229.2,133,229.2z"/>
		</g>
		<g>
			<path class="st4" d="M157.1,229.5c1.7-0.3,4.2-0.5,6.8-0.5c3.6,0,6,0.6,7.6,2c1.4,1.1,2.1,2.9,2.1,4.9c0,3.2-2.2,5.3-4.5,6.2v0.1
				c1.8,0.7,2.8,2.4,3.4,4.8c0.8,3.1,1.4,5.9,1.9,6.9h-4.7c-0.4-0.7-1-2.7-1.6-5.8c-0.7-3.2-1.9-4.2-4.4-4.3h-2.3l0,10.1h-4.5
				L157.1,229.5z M161.5,240.4h2.7c3,0,4.9-1.6,4.9-4.1c0-2.7-1.9-4-4.8-4c-1.4,0-2.3,0.1-2.8,0.2V240.4z"/>
			<path class="st4" d="M175,254.1h-5.2l-0.1-0.1c-0.4-0.8-1-2.9-1.7-5.9c-0.7-3-1.7-4-4.2-4.1h-2v10.1l-5,0l0-24.8l0.2,0
				c1.9-0.3,4.4-0.5,6.9-0.5c3.7,0,6.1,0.6,7.8,2c1.4,1.2,2.2,3,2.2,5.1c0,3.3-2.2,5.3-4.2,6.3c1.5,0.7,2.5,2.3,3.2,4.7l0.3,1.4
				c0.6,2.5,1.2,4.7,1.6,5.5L175,254.1z M170,253.6h4.1c-0.4-1-0.9-3-1.5-5.2l-0.3-1.4c-0.7-2.5-1.7-4-3.3-4.6l-0.2-0.1v-0.5
				l0.2-0.1c2-0.7,4.3-2.7,4.3-5.9c0-2-0.7-3.6-2-4.7c-1.6-1.3-3.9-1.9-7.5-1.9c-2.3,0-4.7,0.2-6.6,0.5v23.9h4v-10.1h2.5
				c2.8,0.1,4,1.3,4.7,4.5C169.1,250.7,169.7,252.8,170,253.6z M164.2,240.7h-2.9v-8.3l0.2,0c0.3-0.1,1.1-0.2,2.8-0.2
				c3.3,0,5.1,1.5,5.1,4.2C169.4,239,167.4,240.7,164.2,240.7z M161.8,240.2h2.4c2.9,0,4.7-1.5,4.7-3.8c0-3.1-2.5-3.7-4.6-3.7
				c-1.4,0-2.2,0.1-2.5,0.2V240.2z"/>
		</g>
		<g>
			<path class="st4" d="M194.5,229.2v24.7H190l0-24.7H194.5z"/>
			<path class="st4" d="M194.8,254.1h-5l0-25.2h5V254.1z M190.3,253.6h4v-24.2h-4V253.6z"/>
		</g>
		<g>
			<path class="st4" d="M216.5,233h-7l0-3.8l18.6,0v3.8H221v20.9h-4.5V233z"/>
			<path class="st4" d="M221.3,254.1h-5l0-20.9h-7v-4.3l19.2,0v4.3l-7.1,0V254.1z M216.7,253.6h4v-20.9h7.1v-3.3h-18.1v3.3h7V253.6z
				"/>
		</g>
		<g>
			<path class="st4" d="M256.9,242.9h-9.3l0,7.3H258l0,3.7h-14.9v-24.7h14.4v3.7h-9.9v6.4h9.3V242.9z"/>
			<path class="st4" d="M258.3,254.1h-15.4v-25.2h14.9v4.2h-9.9l0,5.9h9.3v4.2h-9.3v6.7h10.4V254.1z M243.3,253.6h14.4v-3.2h-10.4
				l0-7.8h9.3v-3.1h-9.3v-6.9h9.9v-3.2h-13.8L243.3,253.6z"/>
		</g>
		<g>
			<path class="st4" d="M291.7,253.1c-1.1,0.5-3.4,1.1-6.4,1.1c-7.8,0-12.6-4.9-12.6-12.4c0-8.1,5.6-13,13.2-13c3,0,5.1,0.6,6,1.1
				l-1,3.6c-1.2-0.5-2.8-1-4.8-1c-5,0-8.6,3.1-8.6,9.1c0,5.4,3.2,8.9,8.6,8.9c1.8,0,3.7-0.4,4.9-0.9L291.7,253.1z"/>
			<path class="st4" d="M285.4,254.5c-7.9,0-12.9-4.9-12.9-12.7c0-8,5.4-13.3,13.4-13.3c2.9,0,5.1,0.6,6.1,1.1l0.2,0.1l-1.1,4.1
				l-0.3-0.1c-1.4-0.6-3-0.9-4.7-0.9c-5.2,0-8.4,3.4-8.4,8.8c0,5.4,3.1,8.6,8.4,8.6c1.8,0,3.6-0.3,4.8-0.9l0.3-0.1l0.8,4.1l-0.2,0.1
				C290.9,253.9,288.5,254.5,285.4,254.5z M285.9,229c-7.7,0-12.9,5.1-12.9,12.8c0,7.5,4.7,12.2,12.3,12.2c2.7,0,5-0.5,6.1-1l-0.6-3
				c-1.2,0.5-3,0.8-4.7,0.8c-5.5,0-8.9-3.5-8.9-9.2c0-5.8,3.4-9.3,8.9-9.3c1.7,0,3.3,0.3,4.7,0.9l0.9-3.1
				C290.6,229.5,288.6,229,285.9,229z"/>
		</g>
		<g>
			<path class="st4" d="M312.2,229.2v9.9h10.4v-9.9h4.5v24.7h-4.5l0-10.9h-10.4v10.9l-4.5,0v-24.7H312.2z"/>
			<path class="st4" d="M327.4,254.1l-5,0v-10.9h-9.9v10.9h-5v-25.2h5v9.9h9.9v-9.9h5V254.1z M322.9,253.6h4l0-24.2h-4v9.9h-11v-9.9
				h-4v24.2h4v-10.9h11V253.6z"/>
		</g>
	</g>
	<g>
		<g>
			<path class="st4" d="M132.8,273.1v9.9h10.4v-9.9h4.5l0,24.7h-4.5l0-10.9h-10.4v10.9h-4.5v-24.7H132.8z"/>
			<path class="st4" d="M148,298.1h-5l0-10.9h-9.9v10.9h-5v-25.2h5v9.9h9.9v-9.9h5V298.1z M143.5,297.6h4l0-24.2h-4v9.9h-11v-9.9h-4
				v24.2h4v-10.9h11L143.5,297.6z"/>
		</g>
		<g>
			<path class="st4" d="M170,290.8l-2.1,7h-4.7l7.9-24.7h5.8l8,24.7H180l-2.2-7H170z M177,287.4l-1.9-6.1c-0.5-1.5-0.9-3.2-1.2-4.6
				h-0.1c-0.4,1.4-0.7,3.2-1.2,4.6l-1.9,6.1H177z"/>
			<path class="st4" d="M185.2,298.1h-5.4l-2.2-7h-7.5l-2.1,7h-5.2l8.1-25.2h6.1l0.1,0.2L185.2,298.1z M180.2,297.6h4.3l-7.9-24.2
				h-5.4l-7.7,24.2h4.1l2.1-7h8.2L180.2,297.6z M177.4,287.7h-7l2-6.4c0.3-1,0.5-2,0.8-3.1c0.1-0.5,0.2-1,0.4-1.5l0-0.2h0.5l0.3,1
				c0.3,1.2,0.7,2.6,1,3.8L177.4,287.7z M171,287.2h5.6l-1.8-5.7c-0.4-1.2-0.7-2.6-1-3.8c-0.1,0.2-0.1,0.4-0.2,0.7
				c-0.2,1-0.5,2.1-0.8,3.1L171,287.2z"/>
		</g>
		<g>
			<path class="st4" d="M204,297.8l-8-24.7h4.9l3.4,11.2c1,3.1,1.8,6,2.4,9h0.1c0.7-2.9,1.5-5.9,2.5-8.9l3.6-11.3h4.8l-8.5,24.7H204
				z"/>
			<path class="st4" d="M209.3,298.1h-5.5l-0.1-0.2l-8.1-25h5.5l3.4,11.4c1,3.1,1.6,5.7,2.2,8.1c0.6-2.4,1.3-5.1,2.3-8l3.6-11.5h5.4
				l-0.1,0.3L209.3,298.1z M204.1,297.6h4.8l8.4-24.2H213l-3.5,11.1c-1.1,3.3-1.9,6.2-2.5,8.9l0,0.2h-0.5l0-0.2
				c-0.6-2.7-1.3-5.5-2.4-9l-3.3-11h-4.4L204.1,297.6z"/>
		</g>
		<g>
			<path class="st4" d="M246.2,286.9h-9.3v7.3h10.4v3.7l-14.9,0l0-24.7h14.4v3.7h-9.9v6.4h9.3V286.9z"/>
			<path class="st4" d="M247.6,298.1h-15.4l0-25.2H247v4.2h-9.9v5.9h9.3v4.2h-9.3v6.7h10.4V298.1z M232.7,297.6h14.4v-3.2l-10.4,0
				v-7.8h9.3v-3.1h-9.3v-6.9l9.9,0v-3.2h-13.8V297.6z"/>
		</g>
		<g>
			<path class="st4" d="M263.4,297.8l0-24.7h5.1l6.4,10.6c1.7,2.7,3.1,5.6,4.2,8.3h0.1c-0.3-3.3-0.4-6.5-0.4-10.3v-8.6h4.2v24.7
				h-4.7l-6.4-10.8c-1.6-2.7-3.2-5.8-4.4-8.5l-0.1,0c0.2,3.2,0.2,6.4,0.2,10.5l0,8.8H263.4z"/>
			<path class="st4" d="M283.2,298.1h-5.1l-6.5-11c-1.7-2.9-3-5.4-4-7.6c0.1,2.8,0.2,5.8,0.2,9.5v9.1h-4.7v-25.2h5.5l0.1,0.1
				l6.4,10.6c1.3,2.2,2.6,4.7,3.7,7.1c-0.2-2.7-0.3-5.5-0.3-8.9v-8.9h4.7L283.2,298.1z M278.4,297.6h4.2v-24.2H279v8.3
				c0,4,0.1,7.1,0.4,10.2l0,0.3h-0.5l-0.1-0.2c-1.2-2.8-2.6-5.7-4.2-8.2l-6.3-10.5h-4.7v24.2h3.6V289c0-4.1,0-7.3-0.2-10.5l0-0.2
				l0.5-0.2l0.1,0.2c1,2.4,2.5,5.2,4.4,8.5L278.4,297.6z"/>
		</g>
	</g>
	<g>
		<path class="st4" d="M129.8,330.8v10.5h-1.9l0-10.5H129.8z"/>
		<path class="st4" d="M135.9,341.3v-10.5h2.2l2.7,4.5c0.7,1.2,1.3,2.4,1.8,3.5h0c-0.1-1.4-0.2-2.8-0.2-4.4l0-3.7h1.8v10.5h-2
			l-2.7-4.6c-0.7-1.2-1.4-2.4-1.9-3.6l0,0c0.1,1.4,0.1,2.7,0.1,4.5v3.8H135.9z"/>
		<path class="st4" d="M152.3,332.4h-3v-1.6h7.9v1.6h-3v8.9h-1.9V332.4z"/>
		<path class="st4" d="M168.2,336.7h-3.9v3.1h4.4v1.6h-6.3v-10.5h6.1v1.6h-4.2v2.7h3.9V336.7z"/>
		<path class="st4" d="M174.2,331c0.7-0.1,1.8-0.2,2.9-0.2c1.5,0,2.5,0.3,3.2,0.8c0.6,0.5,0.9,1.2,0.9,2.1c0,1.4-0.9,2.3-1.9,2.6v0
			c0.7,0.3,1.2,1,1.5,2c0.3,1.3,0.6,2.5,0.8,2.9h-2c-0.2-0.3-0.4-1.2-0.7-2.5c-0.3-1.4-0.8-1.8-1.9-1.8h-1v4.3h-1.9V331z
			 M176.1,335.6h1.1c1.3,0,2.1-0.7,2.1-1.7c0-1.2-0.8-1.7-2.1-1.7c-0.6,0-1,0-1.2,0.1V335.6z"/>
		<path class="st4" d="M187,341.3v-10.5h2.2l2.7,4.5c0.7,1.2,1.3,2.4,1.8,3.5h0c-0.1-1.4-0.2-2.8-0.2-4.4v-3.7h1.8l0,10.5h-2
			l-2.7-4.6c-0.7-1.2-1.4-2.4-1.9-3.6l0,0c0.1,1.4,0.1,2.7,0.1,4.5v3.8H187z"/>
		<path class="st4" d="M203.5,338.3l-0.9,3h-2l3.4-10.5h2.4l3.4,10.5h-2.1l-0.9-3H203.5z M206.5,336.9l-0.8-2.6
			c-0.2-0.6-0.4-1.4-0.5-2h0c-0.2,0.6-0.3,1.3-0.5,2l-0.8,2.6H206.5z"/>
		<path class="st4" d="M215.9,332.4h-3v-1.6h7.9v1.6h-3l0,8.9h-1.9L215.9,332.4z"/>
		<path class="st4" d="M227.9,330.8v10.5H226l0-10.5H227.9z"/>
		<path class="st4" d="M243.3,336c0,3.5-2.1,5.5-5,5.5c-3,0-4.8-2.3-4.8-5.3c0-3.2,2-5.5,5-5.5C241.5,330.7,243.3,333,243.3,336z
			 M235.5,336.1c0,2.1,1.1,3.8,2.9,3.8c1.9,0,2.9-1.7,2.9-3.9c0-2-1-3.8-2.9-3.8C236.5,332.2,235.5,334,235.5,336.1z"/>
		<path class="st4" d="M248.8,341.3v-10.5h2.2l2.7,4.5c0.7,1.2,1.3,2.4,1.8,3.5h0c-0.1-1.4-0.2-2.8-0.2-4.4v-3.7h1.8v10.5h-2
			l-2.7-4.6c-0.7-1.2-1.4-2.4-1.9-3.6l0,0c0.1,1.4,0.1,2.7,0.1,4.5v3.8H248.8z"/>
		<path class="st4" d="M265.3,338.3l-0.9,3h-2l3.4-10.5h2.4l3.4,10.5h-2.1l-0.9-3H265.3z M268.3,336.9l-0.8-2.6
			c-0.2-0.6-0.4-1.4-0.5-2h0c-0.2,0.6-0.3,1.3-0.5,2l-0.8,2.6H268.3z"/>
		<path class="st4" d="M277,330.8h1.9l0,8.9h4.3v1.6H277V330.8z"/>
	</g>
</g>
</svg>
